<svg xmlns="http://www.w3.org/2000/svg" viewBox="0 0 175.6 55.1">
<style type="text/css">
<![CDATA[
	.st0{fill:#FFFFFF;}
]]>
</style>
<g>
	<path class="st0" d="M33,55.1H0V0.1h5.7v50.2H33V55.1z"/>
	<path class="st0" d="M77.7,13v29.4c0,11-8.6,12.8-13.7,12.8H53.6c-5,0-13.6-1.7-13.6-12.8V13C40,1.9,48.6,0.1,53.6,0.1H64
		C69,0.1,77.7,1.9,77.7,13z M64.1,5.2H53.6c-5.5,0-7.8,2.5-7.8,7.8v29.4c0,7.7,5.2,7.8,7.8,7.8h10.4c2.6,0,7.8-0.1,7.8-7.8V13
		C71.9,7.6,69.7,5.2,64.1,5.2z"/>
	<path class="st0" d="M127.3,55.1h-21.8c-10.5,0-15.6-4-15.6-12.6V12.1C89.9,4,95.1,0,105.4,0h20.1v4.7h-20.1
		c-2.7,0-9.7,0.4-9.7,7.6v29.9c0,7.8,6.7,8,9.7,8h16V28.9h-14.8v-4.5h20.6V55.1z"/>
	<path class="st0" d="M175.6,13v29.4c0,11-8.6,12.8-13.7,12.8h-10.4c-5,0-13.6-1.7-13.6-12.8V13c0-11.1,8.6-12.9,13.6-12.9h10.4
		C167,0.1,175.6,1.9,175.6,13z M162.1,5.2h-10.5c-5.5,0-7.8,2.5-7.8,7.8v29.4c0,7.7,5.2,7.8,7.8,7.8H162c2.6,0,7.8-0.1,7.8-7.8V13
		C169.8,7.6,167.6,5.2,162.1,5.2z"/>
</g>
</svg>
